<?xml version="1.0" encoding="UTF-8" standalone="no" ?>
<!DOCTYPE svg PUBLIC "-//W3C//DTD SVG 1.1//EN" "http://www.w3.org/Graphics/SVG/1.1/DTD/svg11.dtd">
<svg xmlns="http://www.w3.org/2000/svg" xmlns:xlink="http://www.w3.org/1999/xlink" version="1.1" width="1080" height="1080" viewBox="0 0 1080 1080" xml:space="preserve">
<desc>Created with Fabric.js 5.2.4</desc>
<defs>
</defs>
<g transform="matrix(1 0 0 1 540 540)" id="7685a016-21f6-4c8d-b0d0-5d13a1ab1611"  >
<rect style="stroke: none; stroke-width: 1; stroke-dasharray: none; stroke-linecap: butt; stroke-dashoffset: 0; stroke-linejoin: miter; stroke-miterlimit: 4; fill: rgb(255,255,255); fill-rule: nonzero; opacity: 1; visibility: hidden;" vector-effect="non-scaling-stroke"  x="-540" y="-540" rx="0" ry="0" width="1080" height="1080" />
</g>
<g transform="matrix(1 0 0 1 540 540)" id="42e1d4c9-ff5b-4fff-afc1-accb52d3605a"  >
</g>
<g transform="matrix(13.17 0 0 13.17 540 540)"  >
<g style=""   >
		<g transform="matrix(1 0 0 1 23.22 1.61)"  >
<path style="stroke: none; stroke-width: 1; stroke-dasharray: none; stroke-linecap: butt; stroke-dashoffset: 0; stroke-linejoin: miter; stroke-miterlimit: 4; fill: rgb(0,200,83); fill-rule: nonzero; opacity: 1;" vector-effect="non-scaling-stroke"  transform=" translate(-64.22, -42.61)" d="M 73.7999 40.9164 L 58.3203 24.5164 C 57.3999 23.5123 55.8101 23.4287 54.806 24.4327 C 53.8019 25.3532 53.7183 26.943 54.7224 27.947 L 68.5285 42.6736 L 54.6387 57.3164 C 53.7183 58.3205 53.7183 59.9103 54.7224 60.8307 C 55.2244 61.2491 55.8101 61.5001 56.4795 61.5001 C 57.1489 61.5001 57.8183 61.2491 58.3203 60.7471 L 73.7999 44.347 C 74.7203 43.4266 74.7203 41.9205 73.7999 40.9164 Z" stroke-linecap="round" />
</g>
		<g transform="matrix(1 0 0 1 -23.21 1.63)"  >
<path style="stroke: none; stroke-width: 1; stroke-dasharray: none; stroke-linecap: butt; stroke-dashoffset: 0; stroke-linejoin: miter; stroke-miterlimit: 4; fill: rgb(0,200,83); fill-rule: nonzero; opacity: 1;" vector-effect="non-scaling-stroke"  transform=" translate(-17.79, -42.63)" d="M 27.2774 24.4326 C 26.2733 23.5122 24.6835 23.5122 23.7631 24.5163 L 8.19983 40.9163 C 7.27942 41.9204 7.27942 43.4265 8.19983 44.3469 L 23.6794 60.7469 C 24.1815 61.2489 24.8509 61.5 25.5202 61.5 C 26.106 61.5 26.7753 61.2489 27.2774 60.8306 C 28.2815 59.9102 28.3651 58.3204 27.3611 57.3163 L 13.4713 42.6734 L 27.3611 28.0306 C 28.2815 27.0265 28.2815 25.4367 27.2774 24.4326 Z" stroke-linecap="round" />
</g>
		<g transform="matrix(1 0 0 1 0.08 1.62)"  >
<path style="stroke: none; stroke-width: 1; stroke-dasharray: none; stroke-linecap: butt; stroke-dashoffset: 0; stroke-linejoin: miter; stroke-miterlimit: 4; fill: rgb(0,200,83); fill-rule: nonzero; opacity: 1;" vector-effect="non-scaling-stroke"  transform=" translate(-41.08, -42.62)" d="M 45.0999 16.0653 C 43.7611 15.8979 42.4223 16.8183 42.255 18.1571 L 34.8917 66.353 C 34.7243 67.6918 35.6448 69.0306 36.9835 69.1979 C 37.1509 69.1979 37.2346 69.1979 37.4019 69.1979 C 38.657 69.1979 39.6611 68.2775 39.9121 67.1061 L 47.2754 18.9102 C 47.359 17.5714 46.4386 16.3163 45.0999 16.0653 Z" stroke-linecap="round" />
</g>
</g>
</g>
</svg>